<svg width="393" height="107" viewBox="0 0 393 107" fill="none" xmlns="http://www.w3.org/2000/svg">
<path fill-rule="evenodd" clip-rule="evenodd" d="M148.682 32C155.819 32 161.558 26.422 164.728 20.0282C170.613 8.15917 182.854 0 197 0C211.146 0 223.387 8.15917 229.272 20.0282C232.442 26.422 238.181 32 245.318 32H387C390.314 32 393 34.6863 393 38V81C393 95.3594 381.359 107 367 107H26C11.6406 107 0 95.3594 0 81V38C0 34.6863 2.68629 32 6 32H148.682Z" fill="white"/>
<path d="M53.52 50.3399L48.13 54.5399C47.23 55.2399 46.5 56.7299 46.5 57.8599V65.2699C46.5 67.5899 48.39 69.4899 50.71 69.4899H62.29C64.61 69.4899 66.5 67.5899 66.5 65.2799V57.9999C66.5 56.7899 65.69 55.2399 64.7 54.5499L58.52 50.2199C57.12 49.2399 54.87 49.2899 53.52 50.3399Z" stroke="#9DB2CE" stroke-width="1.5" stroke-linecap="round" stroke-linejoin="round"/>
<path d="M56.5 65.49V62.49" stroke="#9DB2CE" stroke-width="1.5" stroke-linecap="round" stroke-linejoin="round"/>
<path d="M40.5568 88.5V79.7727H41.6136V83.6591H46.267V79.7727H47.3239V88.5H46.267V84.5966H41.6136V88.5H40.5568ZM51.9624 88.6364C51.3714 88.6364 50.853 88.4957 50.407 88.2145C49.9638 87.9332 49.6172 87.5398 49.3672 87.0341C49.12 86.5284 48.9964 85.9375 48.9964 85.2614C48.9964 84.5795 49.12 83.9844 49.3672 83.4759C49.6172 82.9673 49.9638 82.5724 50.407 82.2912C50.853 82.0099 51.3714 81.8693 51.9624 81.8693C52.5533 81.8693 53.0703 82.0099 53.5135 82.2912C53.9595 82.5724 54.3061 82.9673 54.5533 83.4759C54.8033 83.9844 54.9283 84.5795 54.9283 85.2614C54.9283 85.9375 54.8033 86.5284 54.5533 87.0341C54.3061 87.5398 53.9595 87.9332 53.5135 88.2145C53.0703 88.4957 52.5533 88.6364 51.9624 88.6364ZM51.9624 87.733C52.4112 87.733 52.7805 87.6179 53.0703 87.3878C53.3601 87.1577 53.5746 86.8551 53.7138 86.4801C53.853 86.1051 53.9226 85.6989 53.9226 85.2614C53.9226 84.8239 53.853 84.4162 53.7138 84.0384C53.5746 83.6605 53.3601 83.3551 53.0703 83.1222C52.7805 82.8892 52.4112 82.7727 51.9624 82.7727C51.5135 82.7727 51.1442 82.8892 50.8544 83.1222C50.5646 83.3551 50.3501 83.6605 50.2109 84.0384C50.0717 84.4162 50.0021 84.8239 50.0021 85.2614C50.0021 85.6989 50.0717 86.1051 50.2109 86.4801C50.3501 86.8551 50.5646 87.1577 50.8544 87.3878C51.1442 87.6179 51.5135 87.733 51.9624 87.733ZM56.4634 88.5V81.9545H57.435V82.9773H57.5202C57.6566 82.6278 57.8768 82.3565 58.1808 82.1634C58.4847 81.9673 58.8498 81.8693 59.2759 81.8693C59.7077 81.8693 60.0671 81.9673 60.354 82.1634C60.6438 82.3565 60.8697 82.6278 61.0316 82.9773H61.0998C61.2674 82.6392 61.5188 82.3707 61.854 82.1719C62.1893 81.9702 62.5913 81.8693 63.06 81.8693C63.6452 81.8693 64.1239 82.0526 64.4961 82.419C64.8683 82.7827 65.0543 83.3494 65.0543 84.1193V88.5H64.0487V84.1193C64.0487 83.6364 63.9165 83.2912 63.6523 83.0838C63.3881 82.8764 63.0771 82.7727 62.7191 82.7727C62.2589 82.7727 61.9023 82.9119 61.6495 83.1903C61.3967 83.4659 61.2702 83.8153 61.2702 84.2386V88.5H60.2475V84.017C60.2475 83.6449 60.1268 83.3452 59.8853 83.1179C59.6438 82.8878 59.3327 82.7727 58.9521 82.7727C58.6907 82.7727 58.4464 82.8423 58.2191 82.9815C57.9947 83.1207 57.8129 83.3139 57.6737 83.5611C57.5373 83.8054 57.4691 84.0881 57.4691 84.4091V88.5H56.4634ZM69.6374 88.6364C69.0067 88.6364 68.4627 88.4972 68.0053 88.2188C67.5508 87.9375 67.1999 87.5455 66.9528 87.0426C66.7085 86.5369 66.5863 85.9489 66.5863 85.2784C66.5863 84.608 66.7085 84.017 66.9528 83.5057C67.1999 82.9915 67.5437 82.5909 67.984 82.304C68.4272 82.0142 68.9442 81.8693 69.5352 81.8693C69.8761 81.8693 70.2127 81.9261 70.5451 82.0398C70.8775 82.1534 71.18 82.3381 71.4528 82.5938C71.7255 82.8466 71.9428 83.1818 72.1048 83.5994C72.2667 84.017 72.3477 84.5312 72.3477 85.142V85.5682H67.3022V84.6989H71.3249C71.3249 84.3295 71.2511 84 71.1033 83.7102C70.9585 83.4205 70.7511 83.1918 70.4812 83.0241C70.2141 82.8565 69.8988 82.7727 69.5352 82.7727C69.1346 82.7727 68.788 82.8722 68.4954 83.071C68.2056 83.267 67.9826 83.5227 67.8263 83.8381C67.6701 84.1534 67.592 84.4915 67.592 84.8523V85.4318C67.592 85.9261 67.6772 86.3452 67.8477 86.6889C68.021 87.0298 68.261 87.2898 68.5678 87.4688C68.8746 87.6449 69.2312 87.733 69.6374 87.733C69.9016 87.733 70.1403 87.696 70.3533 87.6222C70.5692 87.5455 70.7553 87.4318 70.9116 87.2812C71.0678 87.1278 71.1886 86.9375 71.2738 86.7102L72.2454 86.983C72.1431 87.3125 71.9712 87.6023 71.7298 87.8523C71.4883 88.0994 71.19 88.2926 70.8349 88.4318C70.4798 88.5682 70.0806 88.6364 69.6374 88.6364Z" fill="#9DB2CE"/>
<path d="M123 66.5H122.5C118.5 66.5 116.5 65.5 116.5 60.5V55.5C116.5 51.5 118.5 49.5 122.5 49.5H130.5C134.5 49.5 136.5 51.5 136.5 55.5V60.5C136.5 64.5 134.5 66.5 130.5 66.5H130C129.69 66.5 129.39 66.65 129.2 66.9L127.7 68.9C127.04 69.78 125.96 69.78 125.3 68.9L123.8 66.9C123.64 66.68 123.27 66.5 123 66.5Z" stroke="#9DB2CE" stroke-width="1.5" stroke-miterlimit="10" stroke-linecap="round" stroke-linejoin="round"/>
<path d="M121.5 55.5H131.5" stroke="#9DB2CE" stroke-width="1.5" stroke-linecap="round" stroke-linejoin="round"/>
<path d="M121.5 60.5H127.5" stroke="#9DB2CE" stroke-width="1.5" stroke-linecap="round" stroke-linejoin="round"/>
<path d="M117.977 79.7727V88.5H116.955L112.199 81.6477H112.114V88.5H111.057V79.7727H112.08L116.852 86.642H116.938V79.7727H117.977ZM122.7 88.6364C122.069 88.6364 121.525 88.4972 121.068 88.2188C120.613 87.9375 120.262 87.5455 120.015 87.0426C119.771 86.5369 119.649 85.9489 119.649 85.2784C119.649 84.608 119.771 84.017 120.015 83.5057C120.262 82.9915 120.606 82.5909 121.047 82.304C121.49 82.0142 122.007 81.8693 122.598 81.8693C122.939 81.8693 123.275 81.9261 123.608 82.0398C123.94 82.1534 124.243 82.3381 124.515 82.5938C124.788 82.8466 125.005 83.1818 125.167 83.5994C125.329 84.017 125.41 84.5312 125.41 85.142V85.5682H120.365V84.6989H124.387C124.387 84.3295 124.314 84 124.166 83.7102C124.021 83.4205 123.814 83.1918 123.544 83.0241C123.277 82.8565 122.961 82.7727 122.598 82.7727C122.197 82.7727 121.85 82.8722 121.558 83.071C121.268 83.267 121.045 83.5227 120.889 83.8381C120.733 84.1534 120.654 84.4915 120.654 84.8523V85.4318C120.654 85.9261 120.74 86.3452 120.91 86.6889C121.083 87.0298 121.324 87.2898 121.63 87.4688C121.937 87.6449 122.294 87.733 122.7 87.733C122.964 87.733 123.203 87.696 123.416 87.6222C123.632 87.5455 123.818 87.4318 123.974 87.2812C124.13 87.1278 124.251 86.9375 124.336 86.7102L125.308 86.983C125.206 87.3125 125.034 87.6023 124.792 87.8523C124.551 88.0994 124.252 88.2926 123.897 88.4318C123.542 88.5682 123.143 88.6364 122.7 88.6364ZM128.423 88.5L126.429 81.9545H127.485L128.9 86.9659H128.968L130.366 81.9545H131.44L132.821 86.9489H132.889L134.304 81.9545H135.36L133.366 88.5H132.377L130.946 83.4716H130.843L129.412 88.5H128.423ZM141.326 83.4205L140.423 83.6761C140.366 83.5256 140.282 83.3793 140.172 83.2372C140.064 83.0923 139.916 82.973 139.728 82.8793C139.541 82.7855 139.301 82.7386 139.008 82.7386C138.608 82.7386 138.274 82.831 138.007 83.0156C137.743 83.1974 137.61 83.429 137.61 83.7102C137.61 83.9602 137.701 84.1577 137.883 84.3026C138.065 84.4474 138.349 84.5682 138.735 84.6648L139.707 84.9034C140.292 85.0455 140.728 85.2628 141.015 85.5554C141.302 85.8452 141.446 86.2187 141.446 86.6761C141.446 87.0511 141.338 87.3864 141.122 87.6818C140.909 87.9773 140.61 88.2102 140.227 88.3807C139.843 88.5511 139.397 88.6364 138.889 88.6364C138.221 88.6364 137.669 88.4915 137.231 88.2017C136.794 87.9119 136.517 87.4886 136.4 86.9318L137.355 86.6932C137.446 87.0455 137.618 87.3097 137.87 87.4858C138.126 87.6619 138.46 87.75 138.872 87.75C139.341 87.75 139.713 87.6506 139.988 87.4517C140.267 87.25 140.406 87.0085 140.406 86.7273C140.406 86.5 140.326 86.3097 140.167 86.1562C140.008 86 139.764 85.8835 139.434 85.8068L138.343 85.5511C137.744 85.4091 137.304 85.1889 137.022 84.8906C136.744 84.5895 136.605 84.2131 136.605 83.7614C136.605 83.392 136.708 83.0653 136.916 82.7812C137.126 82.4972 137.412 82.2741 137.772 82.1122C138.136 81.9503 138.548 81.8693 139.008 81.8693C139.656 81.8693 140.164 82.0114 140.534 82.2955C140.906 82.5795 141.17 82.9545 141.326 83.4205Z" fill="#9DB2CE"/>
<path d="M268.26 65.25H264.73C263.63 65.25 262.76 64.71 262.27 63.73L261.38 61.94C261.17 61.51 260.74 61.25 260.26 61.25H256.48C256.07 61.25 255.73 60.91 255.73 60.5C255.73 60.09 256.07 59.75 256.48 59.75H260.27C261.32 59.75 262.26 60.33 262.73 61.27L263.62 63.06C263.85 63.52 264.22 63.75 264.74 63.75H268.27C268.75 63.75 269.18 63.49 269.39 63.06L270.28 61.27C270.75 60.33 271.69 59.75 272.74 59.75H276.48C276.89 59.75 277.23 60.09 277.23 60.5C277.23 60.91 276.89 61.25 276.48 61.25H272.74C272.26 61.25 271.83 61.51 271.62 61.94L270.73 63.73C270.25 64.67 269.31 65.25 268.26 65.25Z" fill="#9DB2CE"/>
<path d="M273.5 56.25C271.43 56.25 269.75 54.57 269.75 52.5C269.75 50.43 271.43 48.75 273.5 48.75C275.57 48.75 277.25 50.43 277.25 52.5C277.25 54.57 275.57 56.25 273.5 56.25ZM273.5 50.25C272.26 50.25 271.25 51.26 271.25 52.5C271.25 53.74 272.26 54.75 273.5 54.75C274.74 54.75 275.75 53.74 275.75 52.5C275.75 51.26 274.74 50.25 273.5 50.25Z" fill="#9DB2CE"/>
<path d="M269.5 70.25H263.5C258.07 70.25 255.75 67.93 255.75 62.5V56.5C255.75 51.07 258.07 48.75 263.5 48.75H268.5C268.91 48.75 269.25 49.09 269.25 49.5C269.25 49.91 268.91 50.25 268.5 50.25H263.5C258.89 50.25 257.25 51.89 257.25 56.5V62.5C257.25 67.11 258.89 68.75 263.5 68.75H269.5C274.11 68.75 275.75 67.11 275.75 62.5V57.5C275.75 57.09 276.09 56.75 276.5 56.75C276.91 56.75 277.25 57.09 277.25 57.5V62.5C277.25 67.93 274.93 70.25 269.5 70.25Z" fill="#9DB2CE"/>
<path d="M260.477 79.7727V88.5H259.455L254.699 81.6477H254.614V88.5H253.557V79.7727H254.58L259.352 86.642H259.438V79.7727H260.477ZM265.115 88.6364C264.524 88.6364 264.005 88.4957 263.559 88.2145C263.116 87.9332 262.77 87.5398 262.52 87.0341C262.272 86.5284 262.149 85.9375 262.149 85.2614C262.149 84.5795 262.272 83.9844 262.52 83.4759C262.77 82.9673 263.116 82.5724 263.559 82.2912C264.005 82.0099 264.524 81.8693 265.115 81.8693C265.706 81.8693 266.223 82.0099 266.666 82.2912C267.112 82.5724 267.458 82.9673 267.706 83.4759C267.956 83.9844 268.081 84.5795 268.081 85.2614C268.081 85.9375 267.956 86.5284 267.706 87.0341C267.458 87.5398 267.112 87.9332 266.666 88.2145C266.223 88.4957 265.706 88.6364 265.115 88.6364ZM265.115 87.733C265.564 87.733 265.933 87.6179 266.223 87.3878C266.512 87.1577 266.727 86.8551 266.866 86.4801C267.005 86.1051 267.075 85.6989 267.075 85.2614C267.075 84.8239 267.005 84.4162 266.866 84.0384C266.727 83.6605 266.512 83.3551 266.223 83.1222C265.933 82.8892 265.564 82.7727 265.115 82.7727C264.666 82.7727 264.297 82.8892 264.007 83.1222C263.717 83.3551 263.502 83.6605 263.363 84.0384C263.224 84.4162 263.154 84.8239 263.154 85.2614C263.154 85.6989 263.224 86.1051 263.363 86.4801C263.502 86.8551 263.717 87.1577 264.007 87.3878C264.297 87.6179 264.666 87.733 265.115 87.733ZM272.462 81.9545V82.8068H269.07V81.9545H272.462ZM270.059 80.3864H271.065V86.625C271.065 86.9091 271.106 87.1222 271.188 87.2642C271.273 87.4034 271.381 87.4972 271.512 87.5455C271.646 87.5909 271.786 87.6136 271.934 87.6136C272.045 87.6136 272.136 87.608 272.207 87.5966C272.278 87.5824 272.335 87.571 272.377 87.5625L272.582 88.4659C272.513 88.4915 272.418 88.517 272.296 88.5426C272.174 88.571 272.019 88.5852 271.832 88.5852C271.548 88.5852 271.269 88.5241 270.996 88.402C270.727 88.2798 270.502 88.0938 270.323 87.8438C270.147 87.5938 270.059 87.2784 270.059 86.8977V80.3864ZM273.975 88.5V81.9545H274.981V88.5H273.975ZM274.487 80.8636C274.29 80.8636 274.121 80.7969 273.979 80.6634C273.84 80.5298 273.771 80.3693 273.771 80.1818C273.771 79.9943 273.84 79.8338 273.979 79.7003C274.121 79.5668 274.29 79.5 274.487 79.5C274.683 79.5 274.85 79.5668 274.989 79.7003C275.131 79.8338 275.202 79.9943 275.202 80.1818C275.202 80.3693 275.131 80.5298 274.989 80.6634C274.85 80.7969 274.683 80.8636 274.487 80.8636ZM279.738 81.9545V82.8068H276.209V81.9545H279.738ZM277.266 88.5V81.0511C277.266 80.6761 277.354 80.3636 277.53 80.1136C277.706 79.8636 277.935 79.6761 278.216 79.5511C278.498 79.4261 278.794 79.3636 279.107 79.3636C279.354 79.3636 279.556 79.3835 279.712 79.4233C279.868 79.4631 279.985 79.5 280.061 79.5341L279.772 80.4034C279.721 80.3864 279.65 80.3651 279.559 80.3395C279.471 80.3139 279.354 80.3011 279.209 80.3011C278.877 80.3011 278.637 80.3849 278.489 80.5526C278.344 80.7202 278.272 80.9659 278.272 81.2898V88.5H277.266Z" fill="#9DB2CE"/>
<path d="M336.5 59.5C339.261 59.5 341.5 57.2614 341.5 54.5C341.5 51.7386 339.261 49.5 336.5 49.5C333.739 49.5 331.5 51.7386 331.5 54.5C331.5 57.2614 333.739 59.5 336.5 59.5Z" stroke="#9DB2CE" stroke-width="1.5" stroke-linecap="round" stroke-linejoin="round"/>
<path d="M345.09 69.5C345.09 65.63 341.24 62.5 336.5 62.5C331.76 62.5 327.91 65.63 327.91 69.5" stroke="#9DB2CE" stroke-width="1.5" stroke-linecap="round" stroke-linejoin="round"/>
<path d="M318.959 88.5V79.7727H322.07C322.749 79.7727 323.311 79.8963 323.757 80.1435C324.203 80.3906 324.537 80.7287 324.759 81.1577C324.98 81.5838 325.091 82.0639 325.091 82.598C325.091 83.1349 324.979 83.6179 324.754 84.0469C324.533 84.473 324.197 84.8111 323.749 85.0611C323.303 85.3082 322.741 85.4318 322.065 85.4318H319.926V84.3153H321.946C322.375 84.3153 322.723 84.2415 322.99 84.0938C323.257 83.9432 323.453 83.7386 323.578 83.4801C323.703 83.2216 323.766 82.9276 323.766 82.598C323.766 82.2685 323.703 81.9759 323.578 81.7202C323.453 81.4645 323.256 81.2642 322.986 81.1193C322.719 80.9744 322.366 80.902 321.929 80.902H320.276V88.5H318.959ZM326.532 88.5V81.9545H327.764V82.9943H327.832C327.951 82.642 328.162 82.3651 328.463 82.1634C328.767 81.9588 329.11 81.8565 329.494 81.8565C329.574 81.8565 329.667 81.8594 329.775 81.8651C329.886 81.8707 329.973 81.8778 330.035 81.8864V83.1051C329.984 83.0909 329.893 83.0753 329.762 83.0582C329.632 83.0384 329.501 83.0284 329.37 83.0284C329.069 83.0284 328.801 83.0923 328.565 83.2202C328.332 83.3452 328.147 83.5199 328.011 83.7443C327.875 83.9659 327.806 84.2187 327.806 84.5028V88.5H326.532ZM333.661 88.6321C333.047 88.6321 332.511 88.4915 332.054 88.2102C331.597 87.929 331.241 87.5355 330.989 87.0298C330.736 86.5241 330.609 85.9332 330.609 85.2571C330.609 84.5781 330.736 83.9844 330.989 83.4759C331.241 82.9673 331.597 82.5724 332.054 82.2912C332.511 82.0099 333.047 81.8693 333.661 81.8693C334.274 81.8693 334.81 82.0099 335.267 82.2912C335.724 82.5724 336.08 82.9673 336.332 83.4759C336.585 83.9844 336.712 84.5781 336.712 85.2571C336.712 85.9332 336.585 86.5241 336.332 87.0298C336.08 87.5355 335.724 87.929 335.267 88.2102C334.81 88.4915 334.274 88.6321 333.661 88.6321ZM333.665 87.5625C334.063 87.5625 334.392 87.4574 334.653 87.2472C334.915 87.0369 335.108 86.7571 335.233 86.4077C335.361 86.0582 335.425 85.6733 335.425 85.2528C335.425 84.8352 335.361 84.4517 335.233 84.1023C335.108 83.75 334.915 83.4673 334.653 83.2543C334.392 83.0412 334.063 82.9347 333.665 82.9347C333.264 82.9347 332.932 83.0412 332.668 83.2543C332.406 83.4673 332.212 83.75 332.084 84.1023C331.959 84.4517 331.896 84.8352 331.896 85.2528C331.896 85.6733 331.959 86.0582 332.084 86.4077C332.212 86.7571 332.406 87.0369 332.668 87.2472C332.932 87.4574 333.264 87.5625 333.665 87.5625ZM341.249 81.9545V82.9773H337.55V81.9545H341.249ZM338.564 88.5V81.196C338.564 80.7869 338.654 80.4474 338.833 80.1776C339.012 79.9048 339.249 79.7017 339.544 79.5682C339.84 79.4318 340.161 79.3636 340.507 79.3636C340.763 79.3636 340.982 79.3849 341.164 79.4276C341.346 79.4673 341.48 79.5043 341.569 79.5384L341.27 80.5696C341.211 80.5526 341.134 80.5327 341.04 80.5099C340.946 80.4844 340.833 80.4716 340.699 80.4716C340.39 80.4716 340.168 80.5483 340.034 80.7017C339.904 80.8551 339.838 81.0767 339.838 81.3665V88.5H338.564ZM342.564 88.5V81.9545H343.838V88.5H342.564ZM343.207 80.9446C342.985 80.9446 342.795 80.8707 342.636 80.723C342.48 80.5724 342.402 80.3935 342.402 80.1861C342.402 79.9759 342.48 79.7969 342.636 79.6491C342.795 79.4986 342.985 79.4233 343.207 79.4233C343.429 79.4233 343.618 79.4986 343.774 79.6491C343.933 79.7969 344.012 79.9759 344.012 80.1861C344.012 80.3935 343.933 80.5724 343.774 80.723C343.618 80.8707 343.429 80.9446 343.207 80.9446ZM346.826 79.7727V88.5H345.552V79.7727H346.826ZM351.361 88.6321C350.716 88.6321 350.161 88.4943 349.695 88.2188C349.232 87.9403 348.874 87.5497 348.621 87.0469C348.371 86.5412 348.246 85.9489 348.246 85.2699C348.246 84.5994 348.371 84.0085 348.621 83.4972C348.874 82.9858 349.226 82.5866 349.678 82.2997C350.132 82.0128 350.664 81.8693 351.272 81.8693C351.641 81.8693 351.999 81.9304 352.346 82.0526C352.692 82.1747 353.003 82.3665 353.279 82.6278C353.554 82.8892 353.772 83.2287 353.931 83.6463C354.09 84.0611 354.169 84.5653 354.169 85.1591V85.6108H348.966V84.6562H352.921C352.921 84.321 352.853 84.0241 352.716 83.7656C352.58 83.5043 352.388 83.2983 352.141 83.1477C351.897 82.9972 351.61 82.9219 351.28 82.9219C350.922 82.9219 350.61 83.0099 350.343 83.1861C350.078 83.3594 349.874 83.5866 349.729 83.8679C349.587 84.1463 349.516 84.4489 349.516 84.7756V85.5213C349.516 85.9588 349.593 86.331 349.746 86.6378C349.902 86.9446 350.12 87.179 350.398 87.3409C350.676 87.5 351.002 87.5795 351.374 87.5795C351.615 87.5795 351.836 87.5455 352.034 87.4773C352.233 87.4062 352.405 87.3011 352.55 87.1619C352.695 87.0227 352.806 86.8509 352.882 86.6463L354.088 86.8636C353.992 87.2187 353.819 87.5298 353.569 87.7969C353.321 88.0611 353.01 88.267 352.635 88.4148C352.263 88.5597 351.838 88.6321 351.361 88.6321Z" fill="#9DB2CE"/>
<g filter="url(#filter0_d_4176_37659)">
<rect x="170" y="9" width="53" height="53" rx="26.5" fill="#DD3833"/>
<path d="M205.829 27.6378L205.829 27.6377L205.826 27.6358L198.648 23.4913L198.648 23.4912C197.32 22.7248 195.681 22.7261 194.344 23.4901L194.344 23.4901L194.341 23.4914L187.176 27.6358C185.849 28.4023 185.029 29.8246 185.029 31.3676V39.6326C185.029 41.1651 185.85 42.5848 187.173 43.3624L187.176 43.3643L194.354 47.5089L194.354 47.5089C195.681 48.2754 197.321 48.2741 198.658 47.51L198.66 47.5089L205.838 43.3643C207.165 42.5979 207.985 41.1756 207.985 39.6326L207.985 31.3676L207.985 31.3632C207.971 29.8211 207.152 28.415 205.829 27.6378ZM196.234 41.2856L196.234 41.2854L196.221 41.2805C196.144 41.2506 196.078 41.2097 195.998 41.1398C195.937 41.0682 195.883 40.9862 195.833 40.8883C195.807 40.8201 195.793 40.7359 195.793 40.6355C195.793 40.4505 195.863 40.2698 195.988 40.1398C196.073 40.0646 196.14 40.0216 196.221 39.9905L196.231 39.9868L196.24 39.9828C196.492 39.874 196.8 39.9331 196.997 40.1226C197.072 40.2077 197.115 40.275 197.146 40.3558L197.146 40.3559L197.151 40.3686C197.19 40.4625 197.209 40.5543 197.209 40.6355C197.209 40.7167 197.19 40.8085 197.151 40.9024C197.115 40.9896 197.064 41.0714 196.996 41.1488C196.865 41.2754 196.695 41.3438 196.501 41.3438C196.42 41.3438 196.328 41.3247 196.234 41.2856ZM196.095 30.3647C196.095 30.1454 196.282 29.9584 196.501 29.9584C196.72 29.9584 196.907 30.1454 196.907 30.3647V36.7084C196.907 36.9277 196.72 37.1147 196.501 37.1147C196.282 37.1147 196.095 36.9277 196.095 36.7084V30.3647Z" fill="#2A2D90" stroke="#FFB700"/>
</g>
<path d="M178.408 82V73.2727H181.357C182.039 73.2727 182.599 73.3892 183.036 73.6222C183.474 73.8523 183.798 74.169 184.008 74.5724C184.218 74.9759 184.323 75.4347 184.323 75.9489C184.323 76.4631 184.218 76.919 184.008 77.3168C183.798 77.7145 183.475 78.027 183.04 78.2543C182.606 78.4787 182.05 78.5909 181.374 78.5909H178.988V77.6364H181.34C181.806 77.6364 182.181 77.5682 182.465 77.4318C182.752 77.2955 182.96 77.1023 183.087 76.8523C183.218 76.5994 183.283 76.2983 183.283 75.9489C183.283 75.5994 183.218 75.294 183.087 75.0327C182.957 74.7713 182.748 74.5696 182.461 74.4276C182.174 74.2827 181.795 74.2102 181.323 74.2102H179.465V82H178.408ZM182.516 78.0795L184.664 82H183.437L181.323 78.0795H182.516ZM188.622 82.1364C187.991 82.1364 187.447 81.9972 186.99 81.7188C186.535 81.4375 186.184 81.0455 185.937 80.5426C185.693 80.0369 185.571 79.4489 185.571 78.7784C185.571 78.108 185.693 77.517 185.937 77.0057C186.184 76.4915 186.528 76.0909 186.968 75.804C187.412 75.5142 187.929 75.3693 188.52 75.3693C188.86 75.3693 189.197 75.4261 189.529 75.5398C189.862 75.6534 190.164 75.8381 190.437 76.0938C190.71 76.3466 190.927 76.6818 191.089 77.0994C191.251 77.517 191.332 78.0312 191.332 78.642V79.0682H186.287V78.1989H190.309C190.309 77.8295 190.235 77.5 190.088 77.2102C189.943 76.9205 189.735 76.6918 189.466 76.5241C189.199 76.3565 188.883 76.2727 188.52 76.2727C188.119 76.2727 187.772 76.3722 187.48 76.571C187.19 76.767 186.967 77.0227 186.811 77.3381C186.654 77.6534 186.576 77.9915 186.576 78.3523V78.9318C186.576 79.4261 186.662 79.8452 186.832 80.1889C187.005 80.5298 187.245 80.7898 187.552 80.9688C187.859 81.1449 188.216 81.233 188.622 81.233C188.886 81.233 189.125 81.196 189.338 81.1222C189.554 81.0455 189.74 80.9318 189.896 80.7812C190.052 80.6278 190.173 80.4375 190.258 80.2102L191.23 80.483C191.127 80.8125 190.956 81.1023 190.714 81.3523C190.473 81.5994 190.174 81.7926 189.819 81.9318C189.464 82.0682 189.065 82.1364 188.622 82.1364ZM192.862 84.4545V75.4545H193.833V76.4943H193.953C194.027 76.3807 194.129 76.2358 194.26 76.0597C194.393 75.8807 194.583 75.7216 194.831 75.5824C195.081 75.4403 195.419 75.3693 195.845 75.3693C196.396 75.3693 196.882 75.5071 197.302 75.7827C197.723 76.0582 198.051 76.4489 198.287 76.9545C198.522 77.4602 198.64 78.0568 198.64 78.7443C198.64 79.4375 198.522 80.0384 198.287 80.5469C198.051 81.0526 197.724 81.4446 197.306 81.723C196.889 81.9986 196.407 82.1364 195.862 82.1364C195.441 82.1364 195.105 82.0668 194.852 81.9276C194.599 81.7855 194.404 81.625 194.268 81.446C194.132 81.2642 194.027 81.1136 193.953 80.9943H193.868V84.4545H192.862ZM193.85 78.7273C193.85 79.2216 193.923 79.6577 194.068 80.0355C194.213 80.4105 194.424 80.7045 194.703 80.9176C194.981 81.1278 195.322 81.233 195.725 81.233C196.146 81.233 196.497 81.1222 196.778 80.9006C197.062 80.6761 197.275 80.375 197.417 79.9972C197.562 79.6165 197.635 79.1932 197.635 78.7273C197.635 78.267 197.564 77.8523 197.422 77.483C197.282 77.1108 197.071 76.8168 196.787 76.6009C196.505 76.3821 196.152 76.2727 195.725 76.2727C195.316 76.2727 194.973 76.3764 194.694 76.5838C194.416 76.7884 194.206 77.0753 194.064 77.4446C193.922 77.8111 193.85 78.2386 193.85 78.7273ZM202.833 82.1364C202.243 82.1364 201.724 81.9957 201.278 81.7145C200.835 81.4332 200.488 81.0398 200.238 80.5341C199.991 80.0284 199.868 79.4375 199.868 78.7614C199.868 78.0795 199.991 77.4844 200.238 76.9759C200.488 76.4673 200.835 76.0724 201.278 75.7912C201.724 75.5099 202.243 75.3693 202.833 75.3693C203.424 75.3693 203.941 75.5099 204.385 75.7912C204.831 76.0724 205.177 76.4673 205.424 76.9759C205.674 77.4844 205.799 78.0795 205.799 78.7614C205.799 79.4375 205.674 80.0284 205.424 80.5341C205.177 81.0398 204.831 81.4332 204.385 81.7145C203.941 81.9957 203.424 82.1364 202.833 82.1364ZM202.833 81.233C203.282 81.233 203.652 81.1179 203.941 80.8878C204.231 80.6577 204.446 80.3551 204.585 79.9801C204.724 79.6051 204.794 79.1989 204.794 78.7614C204.794 78.3239 204.724 77.9162 204.585 77.5384C204.446 77.1605 204.231 76.8551 203.941 76.6222C203.652 76.3892 203.282 76.2727 202.833 76.2727C202.385 76.2727 202.015 76.3892 201.725 76.6222C201.436 76.8551 201.221 77.1605 201.082 77.5384C200.943 77.9162 200.873 78.3239 200.873 78.7614C200.873 79.1989 200.943 79.6051 201.082 79.9801C201.221 80.3551 201.436 80.6577 201.725 80.8878C202.015 81.1179 202.385 81.233 202.833 81.233ZM207.335 82V75.4545H208.306V76.4432H208.374C208.494 76.1193 208.71 75.8565 209.022 75.6548C209.335 75.4531 209.687 75.3523 210.079 75.3523C210.153 75.3523 210.245 75.3537 210.356 75.3565C210.467 75.3594 210.55 75.3636 210.607 75.3693V76.392C210.573 76.3835 210.495 76.3707 210.373 76.3537C210.254 76.3338 210.127 76.3239 209.994 76.3239C209.675 76.3239 209.391 76.3906 209.141 76.5241C208.894 76.6548 208.698 76.8366 208.553 77.0696C208.411 77.2997 208.34 77.5625 208.34 77.858V82H207.335ZM215.056 75.4545V76.3068H211.664V75.4545H215.056ZM212.653 73.8864H213.658V80.125C213.658 80.4091 213.7 80.6222 213.782 80.7642C213.867 80.9034 213.975 80.9972 214.106 81.0455C214.239 81.0909 214.38 81.1136 214.528 81.1136C214.638 81.1136 214.729 81.108 214.8 81.0966C214.871 81.0824 214.928 81.071 214.971 81.0625L215.175 81.9659C215.107 81.9915 215.012 82.017 214.89 82.0426C214.768 82.071 214.613 82.0852 214.425 82.0852C214.141 82.0852 213.863 82.0241 213.59 81.902C213.32 81.7798 213.096 81.5938 212.917 81.3438C212.741 81.0938 212.653 80.7784 212.653 80.3977V73.8864Z" fill="#2A2D90"/>
<defs>
<filter id="filter0_d_4176_37659" x="158" y="1" width="77" height="77" filterUnits="userSpaceOnUse" color-interpolation-filters="sRGB">
<feFlood flood-opacity="0" result="BackgroundImageFix"/>
<feColorMatrix in="SourceAlpha" type="matrix" values="0 0 0 0 0 0 0 0 0 0 0 0 0 0 0 0 0 0 127 0" result="hardAlpha"/>
<feOffset dy="4"/>
<feGaussianBlur stdDeviation="6"/>
<feColorMatrix type="matrix" values="0 0 0 0 1 0 0 0 0 0.48 0 0 0 0 0 0 0 0 0.5 0"/>
<feBlend mode="normal" in2="BackgroundImageFix" result="effect1_dropShadow_4176_37659"/>
<feBlend mode="normal" in="SourceGraphic" in2="effect1_dropShadow_4176_37659" result="shape"/>
</filter>
</defs>
</svg>
